<svg width="58" height="60" viewBox="0 0 58 60" fill="none" xmlns="http://www.w3.org/2000/svg">
<path d="M14.7727 48.4972C5.87712 48.4972 0.39062 43.7032 1.56249 36.9205H11.3636C10.9552 39.0334 12.7663 40.5427 15.3409 40.5427C18.3949 40.5427 20.7386 38.412 21.0937 36.2103C21.4666 33.9553 19.4069 32.9432 16.4062 32.9432H12.5L13.6363 26.1251H17.1165C20.1349 26.1251 22.603 24.314 23.0113 21.8637C23.3309 19.9816 22.2478 18.7387 19.7443 18.7387C17.0099 18.7387 14.3111 20.3012 13.9915 22.5029H4.61647C5.71732 15.8445 12.2869 11.1393 20.2415 11.1393C28.5333 11.1393 33.4339 16.2529 32.4573 22.2188C31.7471 26.4979 28.3735 28.6286 23.6505 29.037V29.3211C28.7997 29.9248 31.9424 33.4049 31.1789 38.0569C30.2024 44.0228 23.3665 48.4972 14.7727 48.4972Z" fill="#B50404"/>
<path fill-rule="evenodd" clip-rule="evenodd" d="M48.9887 25.1776C46.4887 25.1776 44.8836 23.2103 45.4873 19.5597C46.1052 15.8097 48.4347 13.9489 50.8353 13.9489C52.6605 13.9489 53.3566 15.0356 53.6052 15.9233H53.6975L54.6066 10.4546H57.6321L55.2174 25H52.2344L52.5256 23.2529H52.3978C51.8225 24.162 50.7429 25.1776 48.9887 25.1776ZM37.2983 25L39.1165 14.091H42.0498L41.7302 15.9944H41.8438C42.4688 14.6449 43.5909 13.9347 44.8125 13.9347C45.1179 13.9347 45.4802 13.9702 45.7429 14.0341L45.2884 16.7259C45.0256 16.6336 44.4645 16.5625 44.0313 16.5625C42.7103 16.5625 41.581 17.4858 41.3395 18.8282L40.3239 25H37.2983ZM53.1648 19.5455C52.8452 21.4915 51.7728 22.7699 50.3168 22.7699C48.8253 22.7699 48.2642 21.4489 48.5838 19.5455C48.8892 17.6563 49.8765 16.3566 51.375 16.3566C52.8452 16.3566 53.4844 17.5995 53.1648 19.5455Z" fill="#B50404"/>
</svg>
