<svg width="36" height="41" viewBox="0 0 36 41" fill="none" xmlns="http://www.w3.org/2000/svg">
<path fill-rule="evenodd" clip-rule="evenodd" d="M34.2969 14.2039C33.4004 12.9869 32.1505 11.5642 30.778 10.198C29.4054 8.83175 27.9762 7.58782 26.7534 6.69529C24.6717 5.17574 23.6618 5 23.0833 5H8.22917C6.44852 5 5 6.44193 5 8.21429V37.7857C5 39.5581 6.44852 41 8.22917 41H32.7708C34.5514 41 36 39.5581 36 37.7857V17.8571C36 17.2813 35.8235 16.2761 34.2969 14.2039ZM28.9513 12.0162C30.1905 13.2497 31.1633 14.3626 31.881 15.2857H25.6667V9.10038C26.5943 9.81476 27.7123 10.783 28.9513 12.0162ZM32.7708 38.4286C33.1209 38.4286 33.4167 38.1341 33.4167 37.7857V17.8571H24.375C23.6615 17.8571 23.0833 17.2815 23.0833 16.5714V7.57143H8.22917C7.87912 7.57143 7.58333 7.86586 7.58333 8.21429V37.7857C7.58333 38.1341 7.87912 38.4286 8.22917 38.4286H32.7708Z" fill="#B50404"/>
<path d="M21.8659 1.69843C19.7734 0.176057 18.7583 0 18.1768 0H3.24586C1.45609 0 0 1.44452 0 3.22007V32.8447C0 34.3997 1.1169 35.7009 2.59669 36V3.22007C2.59669 2.87102 2.89401 2.57606 3.24586 2.57606H23C22.6086 2.25727 22.228 1.96183 21.8659 1.69843Z" fill="#B50404"/>
</svg>
