<svg width="212" height="184" viewBox="0 0 212 184" fill="none" xmlns="http://www.w3.org/2000/svg">
<path fill-rule="evenodd" clip-rule="evenodd" d="M7.29013 138V44.04H29.7941C36.1355 44.04 41.4908 44.794 45.8601 46.302C50.2295 47.81 53.5548 50.3813 55.8361 54.016C58.1175 57.6507 59.2581 62.6 59.2581 68.864C59.2581 72.6534 58.9101 76.056 58.2141 79.072C57.5181 82.088 56.3388 84.6593 54.6761 86.786C53.0135 88.9127 50.7128 90.556 47.7741 91.716L60.8821 138H43.7141L32.3461 94.964H24.4581V138H7.29013ZM24.4581 84.176H29.7941C33.1195 84.176 35.7681 83.6927 37.7401 82.726C39.7121 81.7593 41.1235 80.2127 41.9741 78.086C42.8248 75.9593 43.2501 73.2334 43.2501 69.908C43.2501 65.1907 42.3801 61.6527 40.6401 59.294C38.9001 56.9353 35.5942 55.756 30.7221 55.756H24.4581V84.176ZM68.5155 44.04L81.8555 138H96.1235L106.448 75.012L116.888 138H130.808L143.916 44.04H129.764L122.108 104.94L112.132 44.272H100.416L90.6715 104.94L82.8995 44.04H68.5155ZM154.412 138V44.04H176.568C184.224 44.04 190.198 45.084 194.49 47.172C198.782 49.26 201.836 52.4693 203.654 56.8C205.471 61.1307 206.38 66.6213 206.38 73.272V107.608C206.38 114.413 205.471 120.078 203.654 124.602C201.836 129.126 198.82 132.49 194.606 134.694C190.391 136.898 184.61 138 177.264 138H154.412ZM176.8 126.052H171.58V56.22H176.568C180.357 56.22 183.102 56.7613 184.804 57.844C186.505 58.9267 187.626 60.628 188.168 62.948C188.709 65.268 188.98 68.3227 188.98 72.112V108.072C188.98 111.939 188.786 115.206 188.4 117.874C188.013 120.542 186.969 122.572 185.268 123.964C183.566 125.356 180.744 126.052 176.8 126.052Z" fill="#4A4A4A"/>
<path fill-rule="evenodd" clip-rule="evenodd" d="M16.5 153L27 174H6L16.5 153Z" fill="#B50404"/>
<path d="M48.1151 179V163.727H57.3324V165.368H49.9645V170.528H56.8551V172.169H49.9645V177.359H57.4517V179H48.1151ZM70.6289 179H65.9158V163.727H70.8377C72.3192 163.727 73.587 164.033 74.641 164.645C75.695 165.251 76.5028 166.124 77.0646 167.262C77.6264 168.396 77.9073 169.753 77.9073 171.334C77.9073 172.925 77.6239 174.294 77.0572 175.443C76.4904 176.586 75.6651 177.466 74.5813 178.083C73.4975 178.694 72.18 179 70.6289 179ZM67.7653 177.359H70.5096C71.7724 177.359 72.8189 177.116 73.6491 176.629C74.4794 176.141 75.0984 175.448 75.506 174.548C75.9137 173.648 76.1175 172.577 76.1175 171.334C76.1175 170.101 75.9162 169.039 75.5135 168.15C75.1108 167.255 74.5092 166.569 73.7088 166.091C72.9084 165.609 71.9116 165.368 70.7184 165.368H67.7653V177.359ZM96.2823 163.727H98.1317V173.839C98.1317 174.884 97.8857 175.816 97.3935 176.636C96.9063 177.451 96.2177 178.095 95.3278 178.567C94.4379 179.035 93.3938 179.268 92.1957 179.268C90.9975 179.268 89.9535 179.035 89.0636 178.567C88.1737 178.095 87.4826 177.451 86.9904 176.636C86.5032 175.816 86.2596 174.884 86.2596 173.839V163.727H88.109V173.69C88.109 174.436 88.2731 175.1 88.6012 175.681C88.9293 176.258 89.3967 176.713 90.0032 177.046C90.6147 177.374 91.3455 177.538 92.1957 177.538C93.0458 177.538 93.7766 177.374 94.3881 177.046C94.9996 176.713 95.467 176.258 95.7901 175.681C96.1183 175.1 96.2823 174.436 96.2823 173.69V163.727ZM119.365 168.5H117.515C117.406 167.968 117.215 167.501 116.941 167.098C116.673 166.695 116.345 166.357 115.957 166.084C115.574 165.805 115.149 165.597 114.682 165.457C114.214 165.318 113.727 165.249 113.22 165.249C112.295 165.249 111.457 165.482 110.707 165.95C109.961 166.417 109.367 167.105 108.924 168.015C108.487 168.925 108.268 170.041 108.268 171.364C108.268 172.686 108.487 173.802 108.924 174.712C109.367 175.622 109.961 176.31 110.707 176.778C111.457 177.245 112.295 177.479 113.22 177.479C113.727 177.479 114.214 177.409 114.682 177.27C115.149 177.131 115.574 176.924 115.957 176.651C116.345 176.373 116.673 176.032 116.941 175.629C117.215 175.222 117.406 174.754 117.515 174.227H119.365C119.226 175.008 118.972 175.706 118.604 176.323C118.236 176.939 117.779 177.464 117.232 177.896C116.685 178.324 116.071 178.65 115.39 178.873C114.714 179.097 113.991 179.209 113.22 179.209C111.917 179.209 110.759 178.891 109.745 178.254C108.731 177.618 107.933 176.713 107.351 175.54C106.769 174.366 106.478 172.974 106.478 171.364C106.478 169.753 106.769 168.361 107.351 167.188C107.933 166.014 108.731 165.109 109.745 164.473C110.759 163.837 111.917 163.518 113.22 163.518C113.991 163.518 114.714 163.63 115.39 163.854C116.071 164.078 116.685 164.406 117.232 164.838C117.779 165.266 118.236 165.788 118.604 166.404C118.972 167.016 119.226 167.714 119.365 168.5ZM128.23 179H126.291L131.899 163.727H133.808L139.416 179H137.477L132.913 166.143H132.794L128.23 179ZM128.946 173.034H136.761V174.675H128.946V173.034ZM144.425 165.368V163.727H155.88V165.368H151.077V179H149.228V165.368H144.425ZM165.834 163.727V179H163.984V163.727H165.834ZM187.678 171.364C187.678 172.974 187.387 174.366 186.806 175.54C186.224 176.713 185.426 177.618 184.412 178.254C183.398 178.891 182.239 179.209 180.937 179.209C179.634 179.209 178.476 178.891 177.462 178.254C176.447 177.618 175.649 176.713 175.068 175.54C174.486 174.366 174.195 172.974 174.195 171.364C174.195 169.753 174.486 168.361 175.068 167.188C175.649 166.014 176.447 165.109 177.462 164.473C178.476 163.837 179.634 163.518 180.937 163.518C182.239 163.518 183.398 163.837 184.412 164.473C185.426 165.109 186.224 166.014 186.806 167.188C187.387 168.361 187.678 169.753 187.678 171.364ZM185.888 171.364C185.888 170.041 185.667 168.925 185.225 168.015C184.787 167.105 184.193 166.417 183.442 165.95C182.697 165.482 181.861 165.249 180.937 165.249C180.012 165.249 179.174 165.482 178.424 165.95C177.678 166.417 177.084 167.105 176.641 168.015C176.204 168.925 175.985 170.041 175.985 171.364C175.985 172.686 176.204 173.802 176.641 174.712C177.084 175.622 177.678 176.31 178.424 176.778C179.174 177.245 180.012 177.479 180.937 177.479C181.861 177.479 182.697 177.245 183.442 176.778C184.193 176.31 184.787 175.622 185.225 174.712C185.667 173.802 185.888 172.686 185.888 171.364ZM208.149 163.727V179H206.359L198.036 167.009H197.887V179H196.038V163.727H197.828L206.18 175.749H206.329V163.727H208.149Z" fill="#4A4A4A"/>
</svg>
